<svg width="208" height="66" viewBox="0 0 208 66" fill="none" xmlns="http://www.w3.org/2000/svg">
<g clip-path="url(#clip0_1573_56049)">
<circle cx="33" cy="33" r="32.75" fill="url(#paint0_linear_1573_56049)" stroke="url(#paint1_linear_1573_56049)" stroke-width="0.5"/>
<circle cx="32.9987" cy="33.0006" r="22.5377" fill="url(#paint2_linear_1573_56049)" stroke="url(#paint3_linear_1573_56049)"/>
<path d="M27.9 22.5C27.5287 22.5 27.1726 22.6515 26.9101 22.921C26.6475 23.1906 26.5 23.5563 26.5 23.9375C26.5 24.3187 26.6475 24.6844 26.9101 24.954C27.1726 25.2235 27.5287 25.375 27.9 25.375H30.7C31.5808 25.3595 32.4441 25.6288 33.1676 26.1447C33.8912 26.6606 34.4385 27.3971 34.732 28.25H27.9C27.5287 28.25 27.1726 28.4014 26.9101 28.671C26.6475 28.9406 26.5 29.3062 26.5 29.6875C26.5 30.0687 26.6475 30.4344 26.9101 30.704C27.1726 30.9735 27.5287 31.125 27.9 31.125H34.62C34.3328 31.9592 33.8026 32.6826 33.1013 33.1969C32.4001 33.7112 31.5617 33.9916 30.7 34H27.9C27.6248 34.0012 27.356 34.0856 27.1273 34.2427C26.8986 34.3999 26.72 34.6227 26.6139 34.8835C26.5079 35.1442 26.479 35.4313 26.531 35.7088C26.5829 35.9863 26.7134 36.2419 26.906 36.4437L35.306 45.0687C35.4357 45.2046 35.5903 45.3126 35.7609 45.3866C35.9315 45.4607 36.1148 45.4992 36.3 45.5C36.4842 45.5011 36.6669 45.4648 36.8375 45.3933C37.008 45.3217 37.1632 45.2163 37.294 45.0831C37.4252 44.9495 37.5294 44.7905 37.6004 44.6153C37.6715 44.4401 37.7081 44.2522 37.7081 44.0625C37.7081 43.8727 37.6715 43.6848 37.6004 43.5096C37.5294 43.3345 37.4252 43.1755 37.294 43.0419L31.246 36.875C32.7594 36.7464 34.191 36.1159 35.3249 35.0787C36.4588 34.0415 37.2335 32.6538 37.532 31.125H39.1C39.4713 31.125 39.8274 30.9735 40.09 30.704C40.3525 30.4344 40.5 30.0687 40.5 29.6875C40.5 29.3062 40.3525 28.9406 40.09 28.671C39.8274 28.4014 39.4713 28.25 39.1 28.25H37.56C37.3667 27.203 36.9349 26.2179 36.3 25.375H39.1C39.4713 25.375 39.8274 25.2235 40.09 24.954C40.3525 24.6844 40.5 24.3187 40.5 23.9375C40.5 23.5563 40.3525 23.1906 40.09 22.921C39.8274 22.6515 39.4713 22.5 39.1 22.5H27.9Z" fill="url(#paint4_linear_1573_56049)"/>
</g>
<g clip-path="url(#clip1_1573_56049)">
<circle cx="113" cy="33" r="32.75" fill="url(#paint5_linear_1573_56049)" stroke="url(#paint6_linear_1573_56049)" stroke-width="0.5"/>
<circle cx="112.999" cy="33.0006" r="22.5377" fill="url(#paint7_linear_1573_56049)" stroke="url(#paint8_linear_1573_56049)"/>
<path d="M120.431 41.2592L120.984 43.8565C121.016 43.9872 121 44.1097 120.937 44.2241C120.874 44.3384 120.784 44.4174 120.668 44.4609L120.589 44.4773C120.547 44.4991 120.491 44.5181 120.423 44.5344C120.354 44.5508 120.27 44.5753 120.17 44.608C120.07 44.6406 119.957 44.6706 119.83 44.6978C119.704 44.725 119.569 44.7522 119.427 44.7795C119.285 44.8067 119.126 44.8339 118.953 44.8611C118.779 44.8884 118.602 44.9129 118.423 44.9347C118.244 44.9564 118.051 44.9728 117.846 44.9837C117.64 44.9946 117.437 45 117.237 45C114.771 45 112.615 44.2894 110.771 42.8683C108.926 41.4471 107.672 39.5331 107.008 37.1264H105.506C105.369 37.1264 105.25 37.0747 105.15 36.9712C105.05 36.8678 105 36.7453 105 36.6037V34.7578C105 34.6162 105.05 34.4937 105.15 34.3903C105.25 34.2868 105.369 34.2351 105.506 34.2351H106.549C106.528 33.6143 106.534 33.0426 106.565 32.5199H105.506C105.358 32.5199 105.237 32.4709 105.142 32.3729C105.047 32.2749 105 32.1496 105 31.9972V30.1349C105 29.9825 105.047 29.8572 105.142 29.7592C105.237 29.6612 105.358 29.6122 105.506 29.6122H107.055C107.762 27.3253 109.045 25.4848 110.905 24.0909C112.765 22.697 114.876 22 117.237 22C118.312 22 119.335 22.1252 120.304 22.3757C120.42 22.4084 120.526 22.4901 120.621 22.6207C120.684 22.7405 120.7 22.8712 120.668 23.0128L119.988 25.6101C119.957 25.7517 119.883 25.8578 119.767 25.9286C119.651 25.9994 119.524 26.013 119.387 25.9695L119.324 25.9531C119.282 25.9422 119.221 25.9286 119.142 25.9123L118.866 25.8551L118.51 25.7979L118.099 25.7489L117.64 25.7081L117.174 25.6918C115.846 25.6918 114.655 26.0402 113.601 26.7372C112.547 27.4342 111.756 28.3925 111.229 29.6122H118.628C118.797 29.6122 118.929 29.6776 119.024 29.8082C119.129 29.9389 119.166 30.0805 119.134 30.233L118.755 32.0952C118.702 32.3783 118.534 32.5199 118.249 32.5199H110.534C110.502 32.9228 110.502 33.4946 110.534 34.2351H117.791C117.949 34.2351 118.08 34.3004 118.186 34.4311C118.281 34.5618 118.312 34.7088 118.281 34.8722L117.901 36.7017C117.88 36.8215 117.822 36.9222 117.727 37.0039C117.632 37.0856 117.527 37.1264 117.411 37.1264H111.292C111.798 38.4006 112.586 39.4106 113.656 40.1566C114.726 40.9026 115.93 41.2756 117.269 41.2756C117.458 41.2756 117.648 41.2674 117.838 41.2511C118.028 41.2347 118.204 41.2157 118.368 41.1939C118.531 41.1721 118.686 41.1476 118.834 41.1204C118.982 41.0932 119.111 41.0659 119.221 41.0387C119.332 41.0115 119.43 40.987 119.514 40.9652L119.704 40.9162L119.783 40.8835C119.92 40.8291 120.057 40.84 120.194 40.9162C120.32 40.9924 120.399 41.1068 120.431 41.2592Z" fill="url(#paint9_linear_1573_56049)"/>
</g>
<g clip-path="url(#clip2_1573_56049)">
<circle cx="194" cy="33" r="32.75" fill="url(#paint10_linear_1573_56049)" stroke="url(#paint11_linear_1573_56049)" stroke-width="0.5"/>
<circle cx="193.999" cy="33.0006" r="22.5377" fill="url(#paint12_linear_1573_56049)" stroke="url(#paint13_linear_1573_56049)"/>
<path d="M197 32.35H195.75V27.75H198.25C198.582 27.75 198.899 27.8712 199.134 28.0868C199.368 28.3025 199.5 28.595 199.5 28.9C199.5 29.205 199.632 29.4975 199.866 29.7132C200.101 29.9288 200.418 30.05 200.75 30.05C201.082 30.05 201.399 29.9288 201.634 29.7132C201.868 29.4975 202 29.205 202 28.9C202 27.985 201.605 27.1075 200.902 26.4605C200.198 25.8135 199.245 25.45 198.25 25.45H195.75V23.15C195.75 22.845 195.618 22.5525 195.384 22.3368C195.149 22.1212 194.832 22 194.5 22C194.168 22 193.851 22.1212 193.616 22.3368C193.382 22.5525 193.25 22.845 193.25 23.15V25.45H192C190.674 25.45 189.402 25.9346 188.464 26.7973C187.527 27.66 187 28.83 187 30.05C187 31.27 187.527 32.44 188.464 33.3027C189.402 34.1654 190.674 34.65 192 34.65H193.25V39.25H190.75C190.418 39.25 190.101 39.1288 189.866 38.9132C189.632 38.6975 189.5 38.405 189.5 38.1C189.5 37.795 189.368 37.5025 189.134 37.2868C188.899 37.0712 188.582 36.95 188.25 36.95C187.918 36.95 187.601 37.0712 187.366 37.2868C187.132 37.5025 187 37.795 187 38.1C187 39.015 187.395 39.8925 188.098 40.5395C188.802 41.1865 189.755 41.55 190.75 41.55H193.25V43.85C193.25 44.155 193.382 44.4475 193.616 44.6632C193.851 44.8788 194.168 45 194.5 45C194.832 45 195.149 44.8788 195.384 44.6632C195.618 44.4475 195.75 44.155 195.75 43.85V41.55H197C198.326 41.55 199.598 41.0654 200.536 40.2027C201.473 39.34 202 38.17 202 36.95C202 35.73 201.473 34.56 200.536 33.6973C199.598 32.8346 198.326 32.35 197 32.35ZM193.25 32.35H192C191.337 32.35 190.701 32.1077 190.232 31.6763C189.763 31.245 189.5 30.66 189.5 30.05C189.5 29.44 189.763 28.855 190.232 28.4237C190.701 27.9923 191.337 27.75 192 27.75H193.25V32.35ZM197 39.25H195.75V34.65H197C197.663 34.65 198.299 34.8923 198.768 35.3237C199.237 35.755 199.5 36.34 199.5 36.95C199.5 37.56 199.237 38.145 198.768 38.5763C198.299 39.0077 197.663 39.25 197 39.25Z" fill="url(#paint14_linear_1573_56049)"/>
</g>
<defs>
<linearGradient id="paint0_linear_1573_56049" x1="33" y1="0" x2="33" y2="66" gradientUnits="userSpaceOnUse">
<stop stop-color="#C2BDFF"/>
<stop offset="0.203125" stop-color="#AA9AFF"/>
<stop offset="0.494792" stop-color="#E0D6FF"/>
<stop offset="0.776042" stop-color="#D7C0FF"/>
<stop offset="1" stop-color="#B58BF1"/>
</linearGradient>
<linearGradient id="paint1_linear_1573_56049" x1="33" y1="0" x2="33" y2="66" gradientUnits="userSpaceOnUse">
<stop stop-color="#DAC9FF"/>
<stop offset="1" stop-color="#AD87FF" stop-opacity="0"/>
</linearGradient>
<linearGradient id="paint2_linear_1573_56049" x1="32.9987" y1="9.96289" x2="32.9987" y2="56.0384" gradientUnits="userSpaceOnUse">
<stop stop-color="#C79EFF"/>
<stop offset="1" stop-color="#969AFF"/>
</linearGradient>
<linearGradient id="paint3_linear_1573_56049" x1="32.9987" y1="9.96289" x2="32.9987" y2="56.0384" gradientUnits="userSpaceOnUse">
<stop stop-color="#603A94"/>
<stop offset="1" stop-color="#202369" stop-opacity="0"/>
</linearGradient>
<linearGradient id="paint4_linear_1573_56049" x1="33.5" y1="22.5" x2="33.5" y2="45.5" gradientUnits="userSpaceOnUse">
<stop stop-color="#F6EAFF"/>
<stop offset="1" stop-color="#E3D9FF"/>
</linearGradient>
<linearGradient id="paint5_linear_1573_56049" x1="113" y1="0" x2="113" y2="66" gradientUnits="userSpaceOnUse">
<stop stop-color="#C2BDFF"/>
<stop offset="0.203125" stop-color="#AA9AFF"/>
<stop offset="0.494792" stop-color="#E0D6FF"/>
<stop offset="0.776042" stop-color="#D7C0FF"/>
<stop offset="1" stop-color="#B58BF1"/>
</linearGradient>
<linearGradient id="paint6_linear_1573_56049" x1="113" y1="0" x2="113" y2="66" gradientUnits="userSpaceOnUse">
<stop stop-color="#DAC9FF"/>
<stop offset="1" stop-color="#AD87FF" stop-opacity="0"/>
</linearGradient>
<linearGradient id="paint7_linear_1573_56049" x1="112.999" y1="9.96289" x2="112.999" y2="56.0384" gradientUnits="userSpaceOnUse">
<stop stop-color="#C79EFF"/>
<stop offset="1" stop-color="#969AFF"/>
</linearGradient>
<linearGradient id="paint8_linear_1573_56049" x1="112.999" y1="9.96289" x2="112.999" y2="56.0384" gradientUnits="userSpaceOnUse">
<stop stop-color="#603A94"/>
<stop offset="1" stop-color="#202369" stop-opacity="0"/>
</linearGradient>
<linearGradient id="paint9_linear_1573_56049" x1="113" y1="22" x2="113" y2="45" gradientUnits="userSpaceOnUse">
<stop stop-color="#F6EAFF"/>
<stop offset="1" stop-color="#E3D9FF"/>
</linearGradient>
<linearGradient id="paint10_linear_1573_56049" x1="194" y1="0" x2="194" y2="66" gradientUnits="userSpaceOnUse">
<stop stop-color="#C2BDFF"/>
<stop offset="0.203125" stop-color="#AA9AFF"/>
<stop offset="0.494792" stop-color="#E0D6FF"/>
<stop offset="0.776042" stop-color="#D7C0FF"/>
<stop offset="1" stop-color="#B58BF1"/>
</linearGradient>
<linearGradient id="paint11_linear_1573_56049" x1="194" y1="0" x2="194" y2="66" gradientUnits="userSpaceOnUse">
<stop stop-color="#DAC9FF"/>
<stop offset="1" stop-color="#AD87FF" stop-opacity="0"/>
</linearGradient>
<linearGradient id="paint12_linear_1573_56049" x1="193.999" y1="9.96289" x2="193.999" y2="56.0384" gradientUnits="userSpaceOnUse">
<stop stop-color="#C79EFF"/>
<stop offset="1" stop-color="#969AFF"/>
</linearGradient>
<linearGradient id="paint13_linear_1573_56049" x1="193.999" y1="9.96289" x2="193.999" y2="56.0384" gradientUnits="userSpaceOnUse">
<stop stop-color="#603A94"/>
<stop offset="1" stop-color="#202369" stop-opacity="0"/>
</linearGradient>
<linearGradient id="paint14_linear_1573_56049" x1="194.5" y1="22" x2="194.5" y2="45" gradientUnits="userSpaceOnUse">
<stop stop-color="#F6EAFF"/>
<stop offset="1" stop-color="#E3D9FF"/>
</linearGradient>
<clipPath id="clip0_1573_56049">
<rect width="66" height="66" fill="white"/>
</clipPath>
<clipPath id="clip1_1573_56049">
<rect width="66" height="66" fill="white" transform="translate(80)"/>
</clipPath>
<clipPath id="clip2_1573_56049">
<rect width="66" height="66" fill="white" transform="translate(161)"/>
</clipPath>
</defs>
</svg>
